{
  "accessors": [
    {
      "bufferView": 2,
      "componentType": 5126,
      "count": 1627,
      "max": [
        1.3656240701675415,
        6.877870082855225,
        11.678946495056152
      ],
      "min": [
        -1.249450445175171,
        -6.905448913574219,
        -1.4693032503128052
      ],
      "type": "VEC3"
    },
    {
      "bufferView": 2,
      "byteOffset": 19524,
      "componentType": 5126,
      "count": 1627,
      "max": [
        1.0,
        1.0,
        1.0
      ],
      "min": [
        -1.0,
        -1.0,
        -1.0
      ],
      "type": "VEC3"
    },
    {
      "bufferView": 1,
      "componentType": 5126,
      "count": 1627,
      "max": [
        1.0,
        1.0000001192092896
      ],
      "min": [
        -8.940696716308594e-08,
        0.0
      ],
      "type": "VEC2"
    },
    {
      "bufferView": 0,
      "componentType": 5125,
      "count": 2526,
      "type": "SCALAR"
    },
    {
      "bufferView": 2,
      "byteOffset": 39048,
      "componentType": 5126,
      "count": 2166,
      "max": [
        1.7291162014007568,
        6.73828649520874,
        9.054996490478516
      ],
      "min": [
        -3.4194812774658203,
        -6.765863418579102,
        -2.104672431945801
      ],
      "type": "VEC3"
    },
    {
      "bufferView": 2,
      "byteOffset": 65040,
      "componentType": 5126,
      "count": 2166,
      "max": [
        1.0,
        1.0,
        1.0
      ],
      "min": [
        -1.0,
        -1.0,
        -1.0
      ],
      "type": "VEC3"
    },
    {
      "bufferView": 1,
      "byteOffset": 13016,
      "componentType": 5126,
      "count": 2166,
      "max": [
        1.0,
        1.0000001192092896
      ],
      "min": [
        -8.940696716308594e-08,
        0.0
      ],
      "type": "VEC2"
    },
    {
      "bufferView": 0,
      "byteOffset": 10104,
      "componentType": 5125,
      "count": 3420,
      "type": "SCALAR"
    },
    {
      "bufferView": 2,
      "byteOffset": 91032,
      "componentType": 5126,
      "count": 168,
      "max": [
        1.1059952974319458,
        0.8435021638870239,
        6.489512920379639
      ],
      "min": [
        -0.5938675999641418,
        -0.6857389211654663,
        -2.602982521057129
      ],
      "type": "VEC3"
    },
    {
      "bufferView": 2,
      "byteOffset": 93048,
      "componentType": 5126,
      "count": 168,
      "max": [
        0.9874154329299927,
        0.966551661491394,
        1.0
      ],
      "min": [
        -0.9874155521392822,
        -0.966551661491394,
        -1.0
      ],
      "type": "VEC3"
    },
    {
      "bufferView": 1,
      "byteOffset": 30344,
      "componentType": 5126,
      "count": 168,
      "max": [
        1.0,
        1.0
      ],
      "min": [
        -8.940696716308594e-08,
        0.01000000536441803
      ],
      "type": "VEC2"
    },
    {
      "bufferView": 0,
      "byteOffset": 23784,
      "componentType": 5125,
      "count": 264,
      "type": "SCALAR"
    },
    {
      "bufferView": 2,
      "byteOffset": 95064,
      "componentType": 5126,
      "count": 24,
      "max": [
        0.7513304352760315,
        0.8675617575645447,
        -1.4844017028808594
      ],
      "min": [
        -0.7513307929039001,
        -0.8675617575645447,
        -2.138239860534668
      ],
      "type": "VEC3"
    },
    {
      "bufferView": 2,
      "byteOffset": 95352,
      "componentType": 5126,
      "count": 24,
      "max": [
        0.9722041487693787,
        0.841953456401825,
        -0.23413494229316711
      ],
      "min": [
        -0.9722041487693787,
        -0.8419535160064697,
        -0.23413501679897308
      ],
      "type": "VEC3"
    },
    {
      "bufferView": 1,
      "byteOffset": 31688,
      "componentType": 5126,
      "count": 24,
      "max": [
        1.0,
        0.7332783341407776
      ],
      "min": [
        -8.940696716308594e-08,
        0.5624615550041199
      ],
      "type": "VEC2"
    },
    {
      "bufferView": 0,
      "byteOffset": 24840,
      "componentType": 5125,
      "count": 36,
      "type": "SCALAR"
    },
    {
      "bufferView": 2,
      "byteOffset": 95640,
      "componentType": 5126,
      "count": 660,
      "max": [
        1.3143718242645264,
        6.73828649520874,
        5.6294965744018555
      ],
      "min": [
        -3.518979549407959,
        -6.765863418579102,
        -1.85737144947052
      ],
      "type": "VEC3"
    },
    {
      "bufferView": 2,
      "byteOffset": 103560,
      "componentType": 5126,
      "count": 660,
      "max": [
        1.0,
        1.0,
        1.0
      ],
      "min": [
        -1.0,
        -1.0,
        -0.9943506717681885
      ],
      "type": "VEC3"
    },
    {
      "bufferView": 1,
      "byteOffset": 31880,
      "componentType": 5126,
      "count": 660,
      "max": [
        1.0,
        1.0000001192092896
      ],
      "min": [
        -8.940696716308594e-08,
        0.01000000536441803
      ],
      "type": "VEC2"
    },
    {
      "bufferView": 0,
      "byteOffset": 24984,
      "componentType": 5125,
      "count": 1020,
      "type": "SCALAR"
    },
    {
      "bufferView": 2,
      "byteOffset": 111480,
      "componentType": 5126,
      "count": 318,
      "max": [
        1.2864408493041992,
        3.8615310192108154,
        8.200170516967773
      ],
      "min": [
        -1.170376181602478,
        -3.8725802898406982,
        3.6159048080444336
      ],
      "type": "VEC3"
    },
    {
      "bufferView": 2,
      "byteOffset": 115296,
      "componentType": 5126,
      "count": 318,
      "max": [
        0.9999386668205261,
        0.9989098906517029,
        1.0
      ],
      "min": [
        -0.999694287776947,
        -0.9989098906517029,
        -1.0
      ],
      "type": "VEC3"
    },
    {
      "bufferView": 1,
      "byteOffset": 37160,
      "componentType": 5126,
      "count": 318,
      "max": [
        1.0,
        1.0000001192092896
      ],
      "min": [
        -8.940696716308594e-08,
        0.0
      ],
      "type": "VEC2"
    },
    {
      "bufferView": 0,
      "byteOffset": 29064,
      "componentType": 5125,
      "count": 504,
      "type": "SCALAR"
    },
    {
      "bufferView": 2,
      "byteOffset": 119112,
      "componentType": 5126,
      "count": 192,
      "max": [
        0.7938064336776733,
        6.712622165679932,
        3.6441092491149902
      ],
      "min": [
        -0.18299025297164917,
        -6.740199089050293,
        1.088712453842163
      ],
      "type": "VEC3"
    },
    {
      "bufferView": 2,
      "byteOffset": 121416,
      "componentType": 5126,
      "count": 192,
      "max": [
        1.0,
        0.8660262823104858,
        1.0
      ],
      "min": [
        -1.0,
        -0.8660264015197754,
        -1.0
      ],
      "type": "VEC3"
    },
    {
      "bufferView": 1,
      "byteOffset": 39704,
      "componentType": 5126,
      "count": 192,
      "max": [
        1.0,
        1.0000001192092896
      ],
      "min": [
        -8.940696716308594e-08,
        0.01000000536441803
      ],
      "type": "VEC2"
    },
    {
      "bufferView": 0,
      "byteOffset": 31080,
      "componentType": 5125,
      "count": 336,
      "type": "SCALAR"
    },
    {
      "bufferView": 2,
      "byteOffset": 123720,
      "componentType": 5126,
      "count": 2964,
      "max": [
        1.1529767513275146,
        4.098891735076904,
        3.6326656341552734
      ],
      "min": [
        0.12762415409088135,
        -4.109940528869629,
        1.29035484790802
      ],
      "type": "VEC3"
    },
    {
      "bufferView": 2,
      "byteOffset": 159288,
      "componentType": 5126,
      "count": 2964,
      "max": [
        1.0,
        0.8661236763000488,
        1.0
      ],
      "min": [
        -1.0,
        -0.8661242723464966,
        -1.0
      ],
      "type": "VEC3"
    },
    {
      "bufferView": 1,
      "byteOffset": 41240,
      "componentType": 5126,
      "count": 2964,
      "max": [
        1.0,
        1.0000001192092896
      ],
      "min": [
        -8.940696716308594e-08,
        0.0
      ],
      "type": "VEC2"
    },
    {
      "bufferView": 0,
      "byteOffset": 32424,
      "componentType": 5125,
      "count": 4536,
      "type": "SCALAR"
    }
  ],
  "asset": {
    "extras": {
      "author": "iedalton (https://sketchfab.com/iedalton)",
      "license": "CC-BY-4.0 (http://creativecommons.org/licenses/by/4.0/)",
      "source": "https://sketchfab.com/3d-models/f-16-fighter-jet-d84491f443384ee488593cc6f0f0839e",
      "title": "F-16 Fighter Jet"
    },
    "generator": "Sketchfab-12.66.0",
    "version": "2.0"
  },
  "bufferViews": [
    {
      "buffer": 0,
      "byteLength": 50568,
      "name": "floatBufferViews",
      "target": 34963
    },
    {
      "buffer": 0,
      "byteLength": 64952,
      "byteOffset": 50568,
      "byteStride": 8,
      "name": "floatBufferViews",
      "target": 34962
    },
    {
      "buffer": 0,
      "byteLength": 194856,
      "byteOffset": 115520,
      "byteStride": 12,
      "name": "floatBufferViews",
      "target": 34962
    }
  ],
  "buffers": [
    {
      "byteLength": 310376,
      "uri": "scene.bin"
    }
  ],
  "materials": [
    {
      "doubleSided": true,
      "name": "Grey",
      "pbrMetallicRoughness": {
        "baseColorFactor": [
          0.0650161,
          0.0704749,
          0.0765804,
          1.0
        ],
        "metallicFactor": 0.0,
        "roughnessFactor": 0.9844022684
      }
    },
    {
      "doubleSided": true,
      "name": "LightGrey",
      "pbrMetallicRoughness": {
        "baseColorFactor": [
          0.220258,
          0.220258,
          0.220258,
          1.0
        ],
        "metallicFactor": 0.0,
        "roughnessFactor": 0.9507488139
      }
    },
    {
      "doubleSided": true,
      "name": "Black",
      "pbrMetallicRoughness": {
        "baseColorFactor": [
          0.0188489,
          0.0188489,
          0.0188489,
          1.0
        ],
        "metallicFactor": 0.0,
        "roughnessFactor": 0.9957852578
      }
    },
    {
      "doubleSided": true,
      "name": "Material",
      "pbrMetallicRoughness": {
        "baseColorFactor": [
          0.195989,
          0.177754,
          0.141407,
          1.0
        ],
        "metallicFactor": 0.0,
        "roughnessFactor": 0.9599729281
      }
    },
    {
      "doubleSided": true,
      "name": "Yellow",
      "pbrMetallicRoughness": {
        "baseColorFactor": [
          0.8,
          0.649825,
          0.1267,
          1.0
        ],
        "metallicFactor": 0.0,
        "roughnessFactor": 0.8560011175
      }
    },
    {
      "doubleSided": true,
      "name": "Material.001",
      "pbrMetallicRoughness": {
        "baseColorFactor": [
          0.8,
          0.43616,
          0.225107,
          1.0
        ],
        "metallicFactor": 0.0,
        "roughnessFactor": 0.8885824665
      }
    },
    {
      "doubleSided": true,
      "name": "Material.002",
      "pbrMetallicRoughness": {
        "baseColorFactor": [
          0.748403,
          0.748403,
          0.748403,
          1.0
        ],
        "metallicFactor": 0.0,
        "roughnessFactor": 0.8326520017
      }
    },
    {
      "doubleSided": true,
      "name": "Green",
      "pbrMetallicRoughness": {
        "baseColorFactor": [
          0.196996,
          0.214036,
          0.201178,
          1.0
        ],
        "metallicFactor": 0.0,
        "roughnessFactor": 0.9531577415
      }
    }
  ],
  "meshes": [
    {
      "name": "Cylinder.001_Grey_0",
      "primitives": [
        {
          "attributes": {
            "NORMAL": 1,
            "POSITION": 0,
            "TEXCOORD_0": 2
          },
          "indices": 3,
          "material": 0,
          "mode": 4
        }
      ]
    },
    {
      "name": "Cylinder.001_LightGrey_0",
      "primitives": [
        {
          "attributes": {
            "NORMAL": 5,
            "POSITION": 4,
            "TEXCOORD_0": 6
          },
          "indices": 7,
          "material": 1,
          "mode": 4
        }
      ]
    },
    {
      "name": "Cylinder.001_Black_0",
      "primitives": [
        {
          "attributes": {
            "NORMAL": 9,
            "POSITION": 8,
            "TEXCOORD_0": 10
          },
          "indices": 11,
          "material": 2,
          "mode": 4
        }
      ]
    },
    {
      "name": "Cylinder.001_Material_0",
      "primitives": [
        {
          "attributes": {
            "NORMAL": 13,
            "POSITION": 12,
            "TEXCOORD_0": 14
          },
          "indices": 15,
          "material": 3,
          "mode": 4
        }
      ]
    },
    {
      "name": "Cylinder.001_Yellow_0",
      "primitives": [
        {
          "attributes": {
            "NORMAL": 17,
            "POSITION": 16,
            "TEXCOORD_0": 18
          },
          "indices": 19,
          "material": 4,
          "mode": 4
        }
      ]
    },
    {
      "name": "Cylinder.001_Material.001_0",
      "primitives": [
        {
          "attributes": {
            "NORMAL": 21,
            "POSITION": 20,
            "TEXCOORD_0": 22
          },
          "indices": 23,
          "material": 5,
          "mode": 4
        }
      ]
    },
    {
      "name": "Cylinder.001_Material.002_0",
      "primitives": [
        {
          "attributes": {
            "NORMAL": 25,
            "POSITION": 24,
            "TEXCOORD_0": 26
          },
          "indices": 27,
          "material": 6,
          "mode": 4
        }
      ]
    },
    {
      "name": "Cylinder.001_Green_0",
      "primitives": [
        {
          "attributes": {
            "NORMAL": 29,
            "POSITION": 28,
            "TEXCOORD_0": 30
          },
          "indices": 31,
          "material": 7,
          "mode": 4
        }
      ]
    }
  ],
  "nodes": [
    {
      "children": [
        1
      ],
      "matrix": [
        1.0,
        0.0,
        0.0,
        0.0,
        0.0,
        2.220446049250313e-16,
        -1.0,
        0.0,
        0.0,
        1.0,
        2.220446049250313e-16,
        0.0,
        0.0,
        0.0,
        0.0,
        1.0
      ],
      "name": "Sketchfab_model"
    },
    {
      "children": [
        2
      ],
      "matrix": [
        1.0,
        0.0,
        0.0,
        0.0,
        0.0,
        0.0,
        1.0,
        0.0,
        0.0,
        -1.0,
        0.0,
        0.0,
        0.0,
        0.0,
        0.0,
        1.0
      ],
      "name": "ef3a1582c2494fb389d254adb3cc63a7.fbx"
    },
    {
      "children": [
        3
      ],
      "name": "RootNode"
    },
    {
      "children": [
        4,
        5,
        6,
        7,
        8,
        9,
        10,
        11
      ],
      "matrix": [
        4.592397395284214e-06,
        -60.82814788818343,
        0.0,
        0.0,
        4.592397398660855e-06,
        3.376640516538276e-13,
        -60.82814788818343,
        0.0,
        64.5228881835934,
        4.8713425303219345e-06,
        4.871342526740195e-06,
        0.0,
        -240.7677459716797,
        241.5763397216797,
        -1.4901161193847656e-06,
        1.0
      ],
      "name": "Cylinder.001"
    },
    {
      "mesh": 0,
      "name": "Cylinder.001_Grey_0"
    },
    {
      "mesh": 1,
      "name": "Cylinder.001_LightGrey_0"
    },
    {
      "mesh": 2,
      "name": "Cylinder.001_Black_0"
    },
    {
      "mesh": 3,
      "name": "Cylinder.001_Material_0"
    },
    {
      "mesh": 4,
      "name": "Cylinder.001_Yellow_0"
    },
    {
      "mesh": 5,
      "name": "Cylinder.001_Material.001_0"
    },
    {
      "mesh": 6,
      "name": "Cylinder.001_Material.002_0"
    },
    {
      "mesh": 7,
      "name": "Cylinder.001_Green_0"
    }
  ],
  "scene": 0,
  "scenes": [
    {
      "name": "Sketchfab_Scene",
      "nodes": [
        0
      ]
    }
  ]
}
